<?xml version="1.0" encoding="UTF-8"?>
<!DOCTYPE svg PUBLIC "-//W3C//DTD SVG 1.1//EN" "http://www.w3.org/Graphics/SVG/1.1/DTD/svg11.dtd">
<!-- Creator: CorelDRAW -->
<svg xmlns="http://www.w3.org/2000/svg" xml:space="preserve" width="1181px" height="1181px" version="1.1" style="shape-rendering:geometricPrecision; text-rendering:geometricPrecision; image-rendering:optimizeQuality; fill-rule:evenodd; clip-rule:evenodd"
viewBox="0 0 5624.24 5624.24"
 xmlns:xlink="http://www.w3.org/1999/xlink"
 xmlns:xodm="http://www.corel.com/coreldraw/odm/2003">
 <defs>
  <style type="text/css">
   <![CDATA[
    .fil1 {fill:none}
    .fil0 {fill:#F8F9FA;fill-rule:nonzero}
   ]]>
  </style>
 </defs>
 <g id="Livello_x0020_1">
  <metadata id="CorelCorpID_0Corel-Layer"/>
  <path class="fil0" d="M3766.6 1652.13c67.81,56.33 130.4,117.88 187.77,184.64 90.76,106.4 247.23,146.04 366.15,71.98l564.34 -352.59c116.83,-73.01 153.34,-226.36 71.98,-335.89 -159.6,-213.85 -349.45,-402.66 -564.34,-561.22 -108.5,-79.28 -257.66,-44.85 -331.73,66.76l-366.14 548.7c-81.37,121.01 -39.65,284.78 73.01,377.62l-1.04 0zm-205.5 -1081.75c89.71,-134.56 30.26,-318.16 -127.26,-355.71 -199.25,-47.98 -407.87,-73.02 -621.72,-73.02 -213.85,0 -421.44,25.04 -621.72,73.02 -157.52,37.55 -216.97,221.15 -127.27,355.71l417.27 625.9c54.24,81.36 151.25,122.05 249.31,116.83 54.24,-3.13 110.58,-3.13 164.82,0 98.05,5.22 195.07,-35.47 249.31,-116.83l417.26 -625.9zm-2892.66 648.85c-82.41,109.52 -44.85,263.92 71.97,335.89l564.35 352.59c118.93,74.06 274.35,34.42 366.15,-71.98 57.37,-66.76 119.97,-128.31 187.77,-184.64 112.66,-92.84 154.38,-256.62 73.02,-377.62l-367.19 -548.7c-74.06,-111.62 -224.28,-146.04 -331.72,-66.76 -214.89,157.52 -404.75,347.37 -564.35,561.22zm646.75 1471.88c8.35,-103.27 -34.42,-207.59 -123.09,-261.83l-622.76 -389.09c-134.56,-83.46 -311.9,-24 -350.5,130.39 -51.11,205.5 -78.23,420.39 -78.23,642.59l0 250.35c0,138.74 111.61,250.35 250.35,250.35l667.62 0c138.74,0 250.35,-111.61 250.35,-250.35l0 -250.35c0,-40.69 2.1,-81.38 5.22,-121.01l1.04 -1.05zm2994.89 0c3.13,39.64 5.22,80.32 5.22,121.01l0 250.36c0,138.74 111.62,250.35 250.36,250.35l667.61 0c138.75,0 250.36,-111.61 250.36,-250.35l0 -250.36c0,-221.15 -27.12,-436.04 -78.24,-642.58 -37.55,-153.35 -215.93,-213.85 -350.49,-130.39l-622.76 389.09c-87.63,55.28 -131.44,158.56 -123.1,261.83l1.04 1.04zm-3250.46 1122.43l-667.61 0c-138.74,0 -250.36,111.62 -250.36,250.36l0 1168.33c0,138.74 111.62,250.36 250.36,250.36l667.61 0c138.74,0 250.36,-111.62 250.36,-250.36l0 -1168.33c0,-138.74 -111.62,-250.36 -250.36,-250.36zm4172.61 0l-667.62 0c-138.73,0 -250.35,111.62 -250.35,250.36l0 1168.33c0,138.74 111.62,250.36 250.35,250.36l667.62 0c138.74,0 250.36,-111.62 250.36,-250.36l0 -1168.33c0,-138.74 -111.62,-250.36 -250.36,-250.36zm-2169.75 -1752.49c0,-138.74 -111.62,-250.35 -250.36,-250.35 -138.74,0 -250.36,111.61 -250.36,250.35l0 3171.18c0,138.74 111.62,250.36 250.36,250.36 138.74,0 250.36,-111.62 250.36,-250.36l0 -3171.18zm-834.53 333.81c0,-138.74 -111.61,-250.35 -250.36,-250.35 -138.73,0 -250.35,111.61 -250.35,250.35l0 2837.37c0,138.74 111.62,250.36 250.35,250.36 138.75,0 250.36,-111.62 250.36,-250.36l0 -2837.37zm1669.05 0c0,-138.74 -111.62,-250.35 -250.36,-250.35 -138.74,0 -250.35,111.61 -250.35,250.35l0 2837.37c0,138.74 111.61,250.36 250.35,250.36 138.74,0 250.36,-111.62 250.36,-250.36l0 -2837.37z"/>
  <rect class="fil1" x="-0.01" width="5624.24" height="5624.24"/>
 </g>
</svg>
